<?xml version="1.0" encoding="UTF-8"?>
<svg xmlns="http://www.w3.org/2000/svg" version="1.1" xmlns:xlink="http://www.w3.org/1999/xlink" viewBox="0 0 1080 1080">
  <defs>
    <style>
      .cls-1 {
        fill: #fff;
      }

      .cls-2 {
        fill: url(#linear-gradient);
      }

      .cls-3 {
        fill: #33342c;
      }
    </style>
    <linearGradient id="linear-gradient" x1="421.75" y1="540" x2="658.25" y2="540" gradientUnits="userSpaceOnUse">
      <stop offset="0" stop-color="#b16e29"/>
      <stop offset=".49" stop-color="#ffdf85"/>
      <stop offset="1" stop-color="#cf933a"/>
    </linearGradient>
  </defs>
  <!-- Generator: Adobe Illustrator 28.7.1, SVG Export Plug-In . SVG Version: 1.2.0 Build 142)  -->
  <g>
    <g id="Layer_1">
      <rect class="cls-3" x="4424.06" y="3.38" width="1073.25" height="1073.25"/>
      <g>
        <path class="cls-1" d="M5046.59,587.26s-168.51-130.49-197.28-122.27c0,0,5.14-35.96,21.58-45.21,0,0,11.3-22.6,8.22-95.56l17.47-33.91s62.68-42.13,16.44-94.53c0,0-5.14-8.22,4.11-22.6,0,0,9.25-26.71,2.05-56.51,0,0,13.36,31.85,6.16,63.7,0,0-4.11,10.27,8.22,20.55,0,0,14.38,20.55,14.38,36.99,0,0,5.14-42.13-2.05-75.01,0,0-16.44-89.39,21.58-129.46,0,0-23.63,54.46-12.33,113.02,0,0,12.33,4.11,13.36-19.52,0,0-4.11-44.18,9.25-55.48,0,0,12.33-8.22,18.49,0,0,0-22.6,0-20.55,29.8,0,0,5.14,27.74-4.11,44.18l-10.27,17.47s5.14,79.12,12.33,89.39c0,0,5.14,18.49-12.33,32.88l-33.91,33.91-6.16,19.52s4.11,81.17-5.14,90.42l86.31,67.81s21.58-11.3,26.71-34.93c0,0,4.11-19.52-9.25-35.96l-3.08-54.46s11.3-21.58,5.14-56.51c0,0-12.33-42.13,2.05-71.92,0,0-3.08,52.4,9.25,77.06,0,0,12.33,32.88,1.03,52.4,0,0,23.63-7.19,24.66-23.63v-21.58s-13.36-27.74-8.22-49.32c0,0,9.25,42.13,20.55,45.21,0,0,4.11,42.13-6.16,48.29l-23.63,16.44s-3.08,26.71,13.36,33.91c0,0,13.36,14.38,9.25,45.21,0,0,2.05,19.52-19.52,40.07,0,0-25.69,33.91-8.22,52.4,0,0,17.47,10.27,10.27,27.74Z"/>
        <path class="cls-1" d="M4874.78,498.74s168.51,130.49,197.28,122.27c0,0-5.14,35.96-21.58,45.21,0,0-11.3,22.6-8.22,95.56l-17.47,33.91s-62.68,42.13-16.44,94.53c0,0,5.14,8.22-4.11,22.6,0,0-9.25,26.71-2.05,56.51,0,0-13.36-31.85-6.16-63.7,0,0,4.11-10.27-8.22-20.55,0,0-14.38-20.55-14.38-36.99,0,0-5.14,42.13,2.05,75.01,0,0,16.44,89.39-21.58,129.46,0,0,23.63-54.46,12.33-113.02,0,0-12.33-4.11-13.36,19.52,0,0,4.11,44.18-9.25,55.48,0,0-12.33,8.22-18.49,0,0,0,22.6,0,20.55-29.8,0,0-5.14-27.74,4.11-44.18l10.27-17.47s-5.14-79.12-12.33-89.39c0,0-5.14-18.49,12.33-32.88l33.91-33.91,6.16-19.52s-4.11-81.17,5.14-90.42l-86.31-67.81s-21.58,11.3-26.71,34.93c0,0-4.11,19.52,9.25,35.96l3.08,54.46s-11.3,21.58-5.14,56.51c0,0,12.33,42.13-2.05,71.92,0,0,3.08-52.4-9.25-77.06,0,0-12.33-32.88-1.03-52.4,0,0-23.63,7.19-24.66,23.63v21.58s13.36,27.74,8.22,49.32c0,0-9.25-42.13-20.55-45.21,0,0-4.11-42.13,6.16-48.29l23.63-16.44s3.08-26.71-13.36-33.91c0,0-13.36-14.38-9.25-45.21,0,0-2.05-19.52,19.52-40.07,0,0,25.69-33.91,8.22-52.4,0,0-17.47-10.27-10.27-27.74Z"/>
        <path class="cls-1" d="M4988.02,364.3s-20.55-14.38-27.74,10.27c0,0-11.3,41.1-24.66,38.02,0,0,21.58-4.11,16.44,72.95l.99,283.59,11.34-158.23,13.36-215.77s2.05-31.85,10.27-30.82Z"/>
      </g>
      <g>
        <path class="cls-3" d="M5046.59-523.11s-168.51-130.49-197.28-122.27c0,0,5.14-35.96,21.58-45.21,0,0,11.3-22.6,8.22-95.56l17.47-33.91s62.68-42.13,16.44-94.53c0,0-5.14-8.22,4.11-22.6,0,0,9.25-26.71,2.05-56.51,0,0,13.36,31.85,6.16,63.7,0,0-4.11,10.27,8.22,20.55,0,0,14.38,20.55,14.38,36.99,0,0,5.14-42.13-2.05-75.01,0,0-16.44-89.39,21.58-129.46,0,0-23.63,54.46-12.33,113.02,0,0,12.33,4.11,13.36-19.52,0,0-4.11-44.18,9.25-55.48,0,0,12.33-8.22,18.49,0,0,0-22.6,0-20.55,29.8,0,0,5.14,27.74-4.11,44.18l-10.27,17.47s5.14,79.12,12.33,89.39c0,0,5.14,18.49-12.33,32.88l-33.91,33.91-6.16,19.52s4.11,81.17-5.14,90.42l86.31,67.81s21.58-11.3,26.71-34.93c0,0,4.11-19.52-9.25-35.96l-3.08-54.46s11.3-21.58,5.14-56.51c0,0-12.33-42.13,2.05-71.92,0,0-3.08,52.4,9.25,77.06,0,0,12.33,32.88,1.03,52.4,0,0,23.63-7.19,24.66-23.63v-21.58s-13.36-27.74-8.22-49.32c0,0,9.25,42.13,20.55,45.21,0,0,4.11,42.13-6.16,48.29l-23.63,16.44s-3.08,26.71,13.36,33.91c0,0,13.36,14.38,9.25,45.21,0,0,2.05,19.52-19.52,40.07,0,0-25.69,33.91-8.22,52.4,0,0,17.47,10.27,10.27,27.74Z"/>
        <path class="cls-3" d="M4874.78-617.64s168.51,130.49,197.28,122.27c0,0-5.14,35.96-21.58,45.21,0,0-11.3,22.6-8.22,95.56l-17.47,33.91s-62.68,42.13-16.44,94.53c0,0,5.14,8.22-4.11,22.6,0,0-9.25,26.71-2.05,56.51,0,0-13.36-31.85-6.16-63.7,0,0,4.11-10.27-8.22-20.55,0,0-14.38-20.55-14.38-36.99,0,0-5.14,42.13,2.05,75.01,0,0,16.44,89.39-21.58,129.46,0,0,23.63-54.46,12.33-113.02,0,0-12.33-4.11-13.36,19.52,0,0,4.11,44.18-9.25,55.48,0,0-12.33,8.22-18.49,0,0,0,22.6,0,20.55-29.8,0,0-5.14-27.74,4.11-44.18l10.27-17.47s-5.14-79.12-12.33-89.39c0,0-5.14-18.49,12.33-32.88l33.91-33.91,6.16-19.52s-4.11-81.17,5.14-90.42l-86.31-67.81s-21.58,11.3-26.71,34.93c0,0-4.11,19.52,9.25,35.96l3.08,54.46s-11.3,21.58-5.14,56.51c0,0,12.33,42.13-2.05,71.92,0,0,3.08-52.4-9.25-77.06,0,0-12.33-32.88-1.03-52.4,0,0-23.63,7.19-24.66,23.63v21.58s13.36,27.74,8.22,49.32c0,0-9.25-42.13-20.55-45.21,0,0-4.11-42.13,6.16-48.29l23.63-16.44s3.08-26.71-13.36-33.91c0,0-13.36-14.38-9.25-45.21,0,0-2.05-19.52,19.52-40.07,0,0,25.69-33.91,8.22-52.4,0,0-17.47-10.27-10.27-27.74Z"/>
        <path class="cls-3" d="M4988.02-746.08s-20.55-14.38-27.74,10.27c0,0-11.3,41.1-24.66,38.02,0,0,21.58-4.11,16.44,72.95l.99,283.59,11.34-158.23,13.36-215.77s2.05-31.85,10.27-30.82Z"/>
      </g>
      <path class="cls-2" d="M658.25,657.45l-112.49-89.93,1.59-44.55,3.53,2.82c22.57,11.29,40.31-13.7,40.31-13.7,37.89-43.53,62.07-52.4,62.07-52.4,8.87-9.67,3.22-32.25,3.22-32.25-6.45-5.64-4.84-21.77-4.84-21.77,4.03-8.06-.81-19.35-.81-19.35l-38.7-29.02c5.64-4.84,8.87-32.25,8.87-32.25,2.42-7.26-3.22-84.65-3.22-84.65l-2.42,54.01c-6.45-.81-9.67-10.48-9.67-10.48l-3.22-63.69-2.42,64.49c0,9.67,14.51,22.57,14.51,22.57,2.42,24.19-11.29,41.92-11.29,41.92-12.09-5.64-19.35-29.02-19.35-29.02l-6.45-130.6-3.22,133.82c-.81,27.41,9.67,38.7,9.67,38.7l38.7,37.89c-2.42,13.7,1.61,27.41,1.61,27.41-2.42,16.12-58.04,61.27-58.04,61.27-2.68.89-9.31-2.69-18.01-8.79-.28-53.5-1.71-209.21-8.93-218.8l-11.99,202.72c-30.02-24.49-65.87-58.16-65.87-58.16-4.84-2.42-1.61-46.76-1.61-46.76,3.22-17.74,35.47-38.7,35.47-38.7,4.03,0,22.38-16.78,22.38-16.78.56-12.38,2.81-91.12,2.81-91.12,11.29-2.42,20.76-17.05,20.76-17.05,4.84-9.67-2.42-137.85-2.42-137.85l-3.22,114.48c.81,27.41-16.12,27.41-16.12,27.41l-6.45-58.85c0,63.69-3.8,153.99-3.8,153.99-6.45,19.35-25.23,4.02-25.23,4.02-4.03-7.26,0-99.16,0-99.16l-8.06,96.74c-.81,13.7,9.67,15.32,9.67,15.32l-49.98,38.7c-5.64,4.84-2.42,37.89-2.42,37.89-.81,25.8-11.43,34.61-11.43,34.61l103.44,82.7c-.17,9.61-.43,26.27-.65,47.14-20.34-6.12-35.71,15.53-35.71,15.53-37.89,43.53-62.07,52.4-62.07,52.4-8.87,9.67-3.22,32.25-3.22,32.25,6.45,5.64,4.84,21.77,4.84,21.77-4.03,8.06.81,19.35.81,19.35l38.7,29.02c-5.64,4.84-8.87,32.25-8.87,32.25-2.42,7.26,3.22,84.65,3.22,84.65l2.42-54.01c6.45.81,9.67,10.48,9.67,10.48l3.22,63.69,2.42-64.49c0-9.67-14.51-22.57-14.51-22.57-2.42-24.19,11.29-41.92,11.29-41.92,12.09,5.64,19.35,29.02,19.35,29.02l6.45,130.6,3.22-133.82c.81-27.41-9.67-38.7-9.67-38.7l-38.7-37.89c2.42-13.7-1.61-27.41-1.61-27.41,2.42-16.12,58.04-61.27,58.04-61.27,1.83-.61,5.5.87,10.4,3.8-.41,94.4,1.07,224.43,12.04,239.52l8.02-225.23c31.26,24.48,74.33,64.93,74.33,64.93,4.84,2.42,1.61,46.76,1.61,46.76-3.22,17.74-35.47,38.7-35.47,38.7-4.03,0-22.38,16.78-22.38,16.78-.56,12.38-2.81,91.12-2.81,91.12-11.29,2.42-20.76,17.05-20.76,17.05-4.84,9.67,2.42,137.85,2.42,137.85l3.22-114.48c-.81-27.41,16.12-27.41,16.12-27.41l6.45,58.85c0-63.69,3.8-153.99,3.8-153.99,6.45-19.35,25.23-4.02,25.23-4.02,4.03,7.26,0,99.16,0,99.16l8.06-96.74c.81-13.7-9.67-15.32-9.67-15.32l49.98-38.7c5.64-4.84,2.42-37.89,2.42-37.89.81-25.8,11.43-34.61,11.43-34.61Z"/>
    </g>
  </g>
</svg>